<?xml version="1.0" encoding="UTF-8" standalone="no" ?>
<!DOCTYPE svg PUBLIC "-//W3C//DTD SVG 1.1//EN" "http://www.w3.org/Graphics/SVG/1.1/DTD/svg11.dtd">
<svg xmlns="http://www.w3.org/2000/svg" xmlns:xlink="http://www.w3.org/1999/xlink" version="1.1" width="1000" height="1000" viewBox="0 0 500 500" xml:space="preserve">
<desc>Created with Fabric.js 5.3.0</desc>
<defs>
</defs>
<g transform="matrix(4.9630134048 0 0 4.9630134048 250 239.0680874412)" id="VaaUYYmbCterniJbVYh_x"  >
<path style="stroke: rgb(252,134,29); stroke-width: 0; stroke-dasharray: none; stroke-linecap: butt; stroke-dashoffset: 0; stroke-linejoin: miter; stroke-miterlimit: 4; fill: rgb(0,0,0); fill-rule: nonzero; opacity: 1;" vector-effect="non-scaling-stroke"  transform=" translate(0, 0)" d="M 0 -35.41076 C 19.54674 -35.41076 35.41076 -19.546740000000003 35.41076 0 C 35.41076 19.54674 19.546740000000003 35.41076 0 35.41076 C -19.54674 35.41076 -35.41076 19.546740000000003 -35.41076 0 C -35.41076 -19.54674 -19.546740000000003 -35.41076 0 -35.41076 z" stroke-linecap="round" />
</g>
<g transform="matrix(3.2319624647 3.1210698728 -0.3554995289 0.3681305388 255.4636731399 236.570730469)" id="EKWlbrnezdOVVMOhhsWL6"  >
<path style="stroke: rgb(251,114,72); stroke-width: 0; stroke-dasharray: none; stroke-linecap: butt; stroke-dashoffset: 0; stroke-linejoin: miter; stroke-miterlimit: 4; fill: rgb(255,255,255); fill-rule: nonzero; opacity: 1;" vector-effect="non-scaling-stroke"  transform=" translate(0, 0)" d="M -35.79435 -35.10141 L 35.794360000000005 -35.72012 L 32.095760000000006 33.36016 L -35.79434 35.72013 z" stroke-linecap="round" />
</g>
<g transform="matrix(-1.205234396 1.2480567523 -0.3681305387 -0.3554995289 315.5071896127 163.055755257)" id="JNeghbPZ9Is-TCiBMSsVW"  >
<path style="stroke: rgb(251,114,72); stroke-width: 0; stroke-dasharray: none; stroke-linecap: butt; stroke-dashoffset: 0; stroke-linejoin: miter; stroke-miterlimit: 4; fill: rgb(255,255,255); fill-rule: nonzero; opacity: 1;" vector-effect="non-scaling-stroke"  transform=" translate(0, 0)" d="M -35.46163 -35.41076 L 35.359899999999996 -35.41076 L 35.461639999999996 34.52819999999999 L -35.46163000000001 35.41076999999999 z" stroke-linecap="round" />
</g>
<g transform="matrix(-1.2957015717 1.3417382551 -0.3681305387 -0.3554995289 181.7009257662 305.1687409793)" id="NenhmxyzbO9sSSFMaQfwD"  >
<path style="stroke: rgb(251,114,72); stroke-width: 0; stroke-dasharray: none; stroke-linecap: butt; stroke-dashoffset: 0; stroke-linejoin: miter; stroke-miterlimit: 4; fill: rgb(255,255,255); fill-rule: nonzero; opacity: 1;" vector-effect="non-scaling-stroke"  transform=" translate(0, 0)" d="M -35.46163 -35.41076 L 35.359899999999996 -35.41076 L 35.461639999999996 34.52819999999999 L -35.46163000000001 35.41076999999999 z" stroke-linecap="round" />
</g>
</svg>